<?xml version="1.0" standalone="no"?>
<!DOCTYPE svg PUBLIC "-//W3C//DTD SVG 20010904//EN"
 "http://www.w3.org/TR/2001/REC-SVG-20010904/DTD/svg10.dtd">
<svg version="1.0" xmlns="http://www.w3.org/2000/svg"
 width="1200.000000pt" height="1200.000000pt" viewBox="0 0 1200.000000 1200.000000"
 preserveAspectRatio="xMidYMid meet">

<g transform="translate(0.000000,1200.000000) scale(0.100000,-0.100000)"
fill="#000000" stroke="none">
<path d="M5770 11993 c-1764 -75 -3355 -877 -4457 -2248 -1382 -1721 -1699
-4110 -813 -6140 489 -1119 1329 -2082 2375 -2722 1133 -694 2473 -991 3800
-842 1643 184 3124 1033 4124 2363 475 632 832 1382 1020 2148 123 496 175
927 175 1443 0 592 -74 1116 -234 1672 -416 1440 -1373 2689 -2655 3465 -751
454 -1577 735 -2436 827 -370 40 -583 48 -899 34z m3373 -4118 c249 -31 463
-96 702 -214 686 -338 1150 -1010 1224 -1775 55 -557 -105 -1111 -452 -1571
-78 -103 -299 -324 -402 -402 -559 -422 -1238 -562 -1906 -393 -543 136 -1036
495 -1329 967 l-45 72 -907 1 -907 0 -56 -87 c-228 -349 -511 -602 -880 -788
-285 -144 -583 -220 -910 -232 -678 -25 -1343 269 -1776 786 -668 796 -702
1930 -83 2762 91 122 258 296 378 393 367 298 809 468 1291 499 22 1 1365 1
2985 0 2629 -2 2959 -4 3073 -18z"/>
<path d="M8960 7006 c-230 -49 -389 -280 -351 -509 32 -196 183 -346 380 -378
295 -49 563 220 513 514 -34 193 -178 342 -366 376 -73 13 -105 13 -176 -3z"/>
<path d="M2848 6815 c-57 -32 -58 -40 -58 -450 l0 -375 -400 0 -400 0 -32 -29
-33 -29 -3 -241 c-3 -201 0 -246 12 -274 31 -63 21 -62 459 -65 l397 -3 0
-370 c0 -309 3 -376 15 -403 28 -58 38 -61 281 -64 255 -4 295 2 324 51 19 30
20 53 20 409 l0 377 370 3 370 3 32 33 33 32 3 228 c4 239 -2 284 -39 318 -20
18 -45 19 -393 24 l-371 5 -5 387 -5 388 -28 27 -27 28 -248 2 c-205 2 -252 0
-274 -12z"/>
<path d="M5180 6290 l0 -190 230 0 230 0 0 190 0 190 -230 0 -230 0 0 -190z"/>
<path d="M6450 6290 l0 -190 230 0 230 0 0 190 0 190 -230 0 -230 0 0 -190z"/>
<path d="M8062 6130 c-233 -84 -357 -311 -297 -543 21 -81 50 -132 108 -195
89 -93 201 -142 327 -142 175 0 327 96 408 258 31 64 36 85 40 163 5 99 -6
158 -45 234 -54 108 -143 184 -261 224 -81 28 -206 28 -280 1z"/>
<path d="M9785 6136 c-130 -43 -227 -126 -283 -243 -59 -126 -56 -278 10 -407
27 -53 112 -142 166 -173 140 -82 324 -82 464 0 54 31 139 120 166 173 120
235 28 511 -207 623 -69 33 -85 36 -176 38 -63 2 -115 -2 -140 -11z"/>
<path d="M8935 5286 c-201 -66 -325 -233 -325 -438 0 -124 49 -237 142 -325
63 -58 114 -87 195 -108 159 -42 323 5 437 125 95 99 132 201 124 342 -10 167
-102 303 -255 376 -72 34 -86 37 -178 39 -63 2 -115 -2 -140 -11z"/>
</g>
</svg>
